<?xml version="1.0" encoding="UTF-8"?>
<svg version="1.1" xmlns="http://www.w3.org/2000/svg" width="24" height="24">
<path d="M0 0 C1.4540625 0.0309375 1.4540625 0.0309375 2.9375 0.0625 C3.62457555 2.55314888 3.9375 4.44136292 3.9375 7.0625 C7.4025 6.5675 7.4025 6.5675 10.9375 6.0625 C10.7725 6.660625 10.6075 7.25875 10.4375 7.875 C9.67315728 11.21899939 10.0411361 13.81318088 10.9375 17.0625 C9.9475 17.0625 8.9575 17.0625 7.9375 17.0625 C7.9375 18.7125 7.9375 20.3625 7.9375 22.0625 C6.9475 22.0625 5.9575 22.0625 4.9375 22.0625 C4.6075 21.4025 4.2775 20.7425 3.9375 20.0625 C1.2975 20.0625 -1.3425 20.0625 -4.0625 20.0625 C-4.3925 20.7225 -4.7225 21.3825 -5.0625 22.0625 C-6.0525 22.0625 -7.0425 22.0625 -8.0625 22.0625 C-8.0625 20.4125 -8.0625 18.7625 -8.0625 17.0625 C-9.0525 17.0625 -10.0425 17.0625 -11.0625 17.0625 C-10.8975 16.464375 -10.7325 15.86625 -10.5625 15.25 C-9.79815728 11.90600061 -10.1661361 9.31181912 -11.0625 6.0625 C-8.7525 6.3925 -6.4425 6.7225 -4.0625 7.0625 C-4.083125 6.093125 -4.10375 5.12375 -4.125 4.125 C-4.0425 0.0825 -4.0425 0.0825 0 0 Z M-3.0625 9.0625 C-3.0625 11.3725 -3.0625 13.6825 -3.0625 16.0625 C-2.7325 16.0625 -2.4025 16.0625 -2.0625 16.0625 C-2.0625 13.7525 -2.0625 11.4425 -2.0625 9.0625 C-2.3925 9.0625 -2.7225 9.0625 -3.0625 9.0625 Z M1.9375 9.0625 C1.9375 11.3725 1.9375 13.6825 1.9375 16.0625 C2.2675 16.0625 2.5975 16.0625 2.9375 16.0625 C2.9375 13.7525 2.9375 11.4425 2.9375 9.0625 C2.6075 9.0625 2.2775 9.0625 1.9375 9.0625 Z " fill="#000000" transform="translate(12.0625,0.9375)"/>
</svg>
