<?xml version="1.0" encoding="UTF-8"?>
<svg version="1.1" xmlns="http://www.w3.org/2000/svg" width="24" height="24">
<path d="M0 0 C5.28 0 10.56 0 16 0 C14 5 14 5 13 7 C13.78375 6.505 14.5675 6.01 15.375 5.5 C18 4 18 4 20 4 C20 9.28 20 14.56 20 20 C15 18 15 18 13 17 C13.495 17.78375 13.99 18.5675 14.5 19.375 C16 22 16 22 16 24 C10.72 24 5.44 24 0 24 C2 19 2 19 3 17 C2.21625 17.495 1.4325 17.99 0.625 18.5 C-2 20 -2 20 -4 20 C-4 14.72 -4 9.44 -4 4 C1 6 1 6 3 7 C2.505 6.21625 2.01 5.4325 1.5 4.625 C0 2 0 2 0 0 Z " fill="#101111" transform="translate(4,0)"/>
<path d="M0 0 C5.28 0 10.56 0 16 0 C14 5 14 5 13 7 C13.78375 6.505 14.5675 6.01 15.375 5.5 C18 4 18 4 20 4 C20 9.28 20 14.56 20 20 C15 18 15 18 13 17 C13.495 17.78375 13.99 18.5675 14.5 19.375 C16 22 16 22 16 24 C10.72 24 5.44 24 0 24 C2 19 2 19 3 17 C2.21625 17.495 1.4325 17.99 0.625 18.5 C-2 20 -2 20 -4 20 C-4 14.72 -4 9.44 -4 4 C1 6 1 6 3 7 C2.505 6.21625 2.01 5.4325 1.5 4.625 C0 2 0 2 0 0 Z M4 2 C4.52268466 4.76276177 5.10869587 7.3260876 6 10 C5.236875 9.67 4.47375 9.34 3.6875 9 C1.00930865 7.82563314 1.00930865 7.82563314 -2 8 C-2 10.64 -2 13.28 -2 16 C0.76276177 15.47731534 3.3260876 14.89130413 6 14 C5.01 16.97 4.02 19.94 3 23 C6.3 23 9.6 23 13 23 C12.01 20.03 11.02 17.06 10 14 C12.97 14.99 15.94 15.98 19 17 C19 13.7 19 10.4 19 7 C16.03 7.99 13.06 8.98 10 10 C10.33 9.236875 10.66 8.47375 11 7.6875 C12.17436686 5.00930865 12.17436686 5.00930865 12 2 C9.36 2 6.72 2 4 2 Z " fill="#595959" transform="translate(4,0)"/>
<path d="M0 0 C0 5.28 0 10.56 0 16 C-5 14 -5 14 -7 13 C-6.2575 14.175625 -6.2575 14.175625 -5.5 15.375 C-4 18 -4 18 -4 20 C-9.28 20 -14.56 20 -20 20 C-19.505 18.515 -19.505 18.515 -19 17 C-18.34 17 -17.68 17 -17 17 C-17 17.66 -17 18.32 -17 19 C-13.7 19 -10.4 19 -7 19 C-7.495 18.071875 -7.99 17.14375 -8.5 16.1875 C-10 13 -10 13 -10 10 C-6.47930015 10.58678331 -4.28700157 11.35649921 -1 13 C-1 9.7 -1 6.4 -1 3 C-3.97 3.99 -6.94 4.98 -10 6 C-9.67 4.68 -9.34 3.36 -9 2 C-8.67 2.66 -8.34 3.32 -8 4 C-7.05125 3.34 -6.1025 2.68 -5.125 2 C-2 0 -2 0 0 0 Z " fill="#737373" transform="translate(24,4)"/>
<path d="M0 0 C0 5.28 0 10.56 0 16 C-0.99 15.67 -1.98 15.34 -3 15 C-3 14.34 -3 13.68 -3 13 C-2.34 13 -1.68 13 -1 13 C-1 9.7 -1 6.4 -1 3 C-5.455 4.485 -5.455 4.485 -10 6 C-9.67 4.68 -9.34 3.36 -9 2 C-8.67 2.66 -8.34 3.32 -8 4 C-7.05125 3.34 -6.1025 2.68 -5.125 2 C-2 0 -2 0 0 0 Z " fill="#79797A" transform="translate(24,4)"/>
<path d="M0 0 C0.99 0.33 1.98 0.66 3 1 C3 1.66 3 2.32 3 3 C2.34 3 1.68 3 1 3 C1 6.3 1 9.6 1 13 C1.66 13 2.32 13 3 13 C2.67 13.99 2.34 14.98 2 16 C1.34 16 0.68 16 0 16 C0 10.72 0 5.44 0 0 Z " fill="#747474" transform="translate(0,4)"/>
<path d="M0 0 C5.28 0 10.56 0 16 0 C15.67 0.99 15.34 1.98 15 3 C14.34 3 13.68 3 13 3 C13 2.34 13 1.68 13 1 C9.7 1 6.4 1 3 1 C3 1.66 3 2.32 3 3 C2.01 2.67 1.02 2.34 0 2 C0 1.34 0 0.68 0 0 Z " fill="#747474" transform="translate(4,0)"/>
<path d="M0 0 C1.5 1.3125 1.5 1.3125 3 3 C3 3.99 3 4.98 3 6 C0.5625 5.625 0.5625 5.625 -2 5 C-2.33 4.34 -2.66 3.68 -3 3 C-2.01 3 -1.02 3 0 3 C0 2.01 0 1.02 0 0 Z " fill="#797979" transform="translate(7,4)"/>
</svg>
